<?xml version="1.0" encoding="UTF-8" standalone="no"?>
<!-- Uploaded to: SVG Repo, www.svgrepo.com, Generator: SVG Repo Mixer Tools -->

<svg
   width="800px"
   height="800px"
   viewBox="0 0 20 20"
   version="1.1"
   id="svg12"
   sodipodi:docname="profile-icon.svg"
   inkscape:version="1.2.2 (b0a84865, 2022-12-01)"
   xmlns:inkscape="http://www.inkscape.org/namespaces/inkscape"
   xmlns:sodipodi="http://sodipodi.sourceforge.net/DTD/sodipodi-0.dtd"
   xmlns="http://www.w3.org/2000/svg"
   xmlns:svg="http://www.w3.org/2000/svg">
  <sodipodi:namedview
     id="namedview14"
     pagecolor="#ffffff"
     bordercolor="#cccccc"
     borderopacity="1"
     inkscape:showpageshadow="0"
     inkscape:pageopacity="1"
     inkscape:pagecheckerboard="0"
     inkscape:deskcolor="#d1d1d1"
     showgrid="false"
     inkscape:zoom="0.295"
     inkscape:cx="400"
     inkscape:cy="400"
     inkscape:window-width="1440"
     inkscape:window-height="900"
     inkscape:window-x="0"
     inkscape:window-y="0"
     inkscape:window-maximized="0"
     inkscape:current-layer="svg12" />
  <title
     id="title2">profile_round [#1342]</title>
  <desc
     id="desc4">Created with Sketch.</desc>
  <defs
     id="defs6" />
  <path
     style="fill:#666666;stroke:#000000;stroke-width:0"
     d="m 2.0762712,20.043894 c -0.04661,-0.01651 -0.2222724,-0.0529 -0.3903604,-0.08088 -0.82430421,-0.137201 -1.51641931,-0.982678 -1.51641931,-1.852433 0,-0.850834 0.675096,-2.575098 1.46264701,-3.735751 0.9317648,-1.373188 2.5812388,-2.716002 4.1305733,-3.362644 0.256356,-0.106994 0.482048,-0.206952 0.5015377,-0.222129 0.01949,-0.01518 -0.1995122,-0.265886 -0.4866707,-0.557131 C 5.1434693,9.589793 4.8930298,9.229213 4.5337555,8.442083 4.145148,7.590687 4.0276998,7.0322785 4.0325975,6.059322 4.0375373,5.0780175 4.195947,4.3886257 4.6161725,3.5196312 5.371582,1.957502 6.968119,0.69078663 8.6811047,0.29445563 c 0.74787,-0.1730336 2.0532683,-0.1745461 2.7919483,-0.00323 2.148436,0.4982556 3.94476,2.23689387 4.514779,4.36979607 0.221042,0.8270975 0.199757,2.157489 -0.04742,2.963964 C 15.59645,8.747242 15.152895,9.491596 14.37405,10.25359 c -0.26166,0.255996 -0.47562,0.48481 -0.475467,0.508474 1.75e-4,0.02366 0.263283,0.150883 0.584736,0.282709 1.297269,0.532 2.902838,1.796562 3.83052,3.016957 0.8565,1.126752 1.686162,3.144973 1.686162,4.10173 0,0.724582 -0.440631,1.357177 -1.185489,1.701956 -0.37851,0.175204 -0.46311,0.177119 -8.5179,0.192729 -4.474577,0.0087 -8.1737296,0.0023 -8.2203398,-0.01425 z M 17.11537,18.010168 c 0.36123,-0.186799 0.596495,-0.532085 0.596495,-0.875444 0,-0.393509 -0.474587,-1.34483 -1.044222,-2.093172 C 15.140527,13.035349 12.39165,11.884588 9.5601947,12.066165 6.4391,12.266316 3.974398,13.776222 2.7549563,16.235135 c -0.4450334,0.897376 -0.3808352,1.357988 0.242223,1.737911 0.2555587,0.155832 0.5211442,0.161925 7.0705887,0.16223 5.842793,2.55e-4 6.839353,-0.01742 7.047602,-0.125108 z M 11.276992,9.949707 C 13.201419,9.38513 14.456897,7.432969 14.153431,5.4770862 13.926963,4.0174625 12.901755,2.7961787 11.461757,2.2706151 10.772108,2.0189104 9.3973837,2.0189104 8.7077347,2.2706151 7.66444,2.6513917 6.8108348,3.4112445 6.3561738,4.3639005 5.3167488,6.54182 6.4818725,9.180066 8.8126107,9.92613 c 0.60788,0.19458 1.8412723,0.20638 2.4643813,0.02358 z"
     id="path189" />
</svg>
