<?xml version="1.0" encoding="UTF-8" standalone="no"?>
<!-- Uploaded to: SVG Repo, www.svgrepo.com, Generator: SVG Repo Mixer Tools -->

<svg
   width="800px"
   height="800px"
   viewBox="0 0 16 16"
   fill="none"
   version="1.1"
   id="svg8"
   sodipodi:docname="history-icon.svg"
   inkscape:version="1.2.2 (b0a84865, 2022-12-01)"
   xmlns:inkscape="http://www.inkscape.org/namespaces/inkscape"
   xmlns:sodipodi="http://sodipodi.sourceforge.net/DTD/sodipodi-0.dtd"
   xmlns="http://www.w3.org/2000/svg"
   xmlns:svg="http://www.w3.org/2000/svg">
  <defs
     id="defs12" />
  <sodipodi:namedview
     id="namedview10"
     pagecolor="#ffffff"
     bordercolor="#cccccc"
     borderopacity="1"
     inkscape:showpageshadow="0"
     inkscape:pageopacity="1"
     inkscape:pagecheckerboard="0"
     inkscape:deskcolor="#d1d1d1"
     showgrid="false"
     inkscape:zoom="0.295"
     inkscape:cx="401.69492"
     inkscape:cy="400"
     inkscape:window-width="1309"
     inkscape:window-height="456"
     inkscape:window-x="0"
     inkscape:window-y="25"
     inkscape:window-maximized="0"
     inkscape:current-layer="svg8" />
  <g
     fill="#000000"
     id="g6"
     style="fill:#666666">
    <path
       d="M1.5 1.25a.75.75 0 011.5 0v1.851A7 7 0 111 8a.75.75 0 011.5 0 5.5 5.5 0 101.725-4H5.75a.75.75 0 010 1.5h-3.5a.75.75 0 01-.75-.75v-3.5z"
       id="path2"
       style="fill:#666666" />
    <path
       d="M8.25 4a.75.75 0 01.75.75v3.763l1.805.802a.75.75 0 01-.61 1.37l-2.25-1A.75.75 0 017.5 9V4.75A.75.75 0 018.25 4z"
       id="path4"
       style="fill:#666666" />
  </g>
</svg>
