<?xml version="1.0" encoding="UTF-8" standalone="no"?>
<!-- Uploaded to: SVG Repo, www.svgrepo.com, Generator: SVG Repo Mixer Tools -->

<svg
   width="800px"
   height="800px"
   viewBox="0 0 24 24"
   fill="none"
   version="1.1"
   id="svg4"
   sodipodi:docname="refresh_icon.svg"
   inkscape:version="1.2.2 (b0a84865, 2022-12-01)"
   xmlns:inkscape="http://www.inkscape.org/namespaces/inkscape"
   xmlns:sodipodi="http://sodipodi.sourceforge.net/DTD/sodipodi-0.dtd"
   xmlns="http://www.w3.org/2000/svg"
   xmlns:svg="http://www.w3.org/2000/svg">
  <defs
     id="defs8" />
  <sodipodi:namedview
     id="namedview6"
     pagecolor="#ffffff"
     bordercolor="#cccccc"
     borderopacity="1"
     inkscape:showpageshadow="0"
     inkscape:pageopacity="1"
     inkscape:pagecheckerboard="0"
     inkscape:deskcolor="#d1d1d1"
     showgrid="false"
     inkscape:zoom="1.09625"
     inkscape:cx="401.8244"
     inkscape:cy="402.7366"
     inkscape:window-width="1390"
     inkscape:window-height="1027"
     inkscape:window-x="0"
     inkscape:window-y="25"
     inkscape:window-maximized="0"
     inkscape:current-layer="svg4" />
  <path
     d="M3 3V8M3 8H8M3 8L6 5.29168C7.59227 3.86656 9.69494 3 12 3C16.9706 3 21 7.02944 21 12C21 16.9706 16.9706 21 12 21C7.71683 21 4.13247 18.008 3.22302 14"
     stroke="#000000"
     stroke-width="2"
     stroke-linecap="round"
     stroke-linejoin="round"
     id="path2" />
  <path
     style="fill:#4d4d4d;stroke-width:0.912201"
     d="M 373.54618,731.88663 C 331.42162,727.68377 298.52072,719.17528 263.21678,703.35439 194.67728,672.63952 136.55416,616.83405 102.641,549.18156 91.532159,527.02082 82.644535,503.20146 77.038216,480.56457 74.78022,471.44736 74.363302,468.25171 74.828403,463.62651 76.00976,451.87849 84.997051,440.16159 96.01217,436.00882 c 7.4621,-2.81325 18.71114,-2.25819 25.57132,1.26177 10.91967,5.60288 14.9815,11.66129 19.71593,29.40724 9.98282,37.41833 26.85824,71.17057 50.35341,100.711 8.4429,10.61524 30.89473,32.93632 41.41444,41.17328 40.34024,31.58646 83.61627,49.90999 133.63741,56.58349 12.18597,1.62578 54.40467,1.62578 66.59064,0 37.01262,-4.93799 72.45654,-17.14482 103.53478,-35.65723 46.17658,-27.50603 84.70987,-70.5916 106.51277,-119.09606 45.09152,-100.31415 24.75129,-217.64337 -51.29978,-295.91411 -43.10022,-44.35817 -96.98068,-71.38323 -158.74777,-79.6238 -12.18597,-1.62577 -54.40467,-1.62577 -66.59064,0 -44.70842,5.96471 -86.18767,22.17294 -121.7788,47.58568 -11.05559,7.8939 -18.09658,13.82736 -40.52896,34.15384 l -18.18006,16.47335 43.72168,0.45611 c 48.22407,0.50306 46.52613,0.30191 55.85414,6.61703 8.72438,5.90645 14.63162,18.63984 13.53127,29.16742 -1.19487,11.43198 -9.18406,22.66946 -19.5057,27.43643 l -4.33364,2.00146 H 183.35234 91.220068 l -4.333647,-2.00146 C 80.421292,293.75839 73.20427,286.45949 70.124666,279.79236 l -2.621815,-5.67605 V 183.35234 92.588369 l 2.835545,-5.929304 c 3.402095,-7.113996 9.03853,-12.883575 15.858435,-16.233044 4.389165,-2.155657 6.117116,-2.46707 13.689144,-2.46707 7.485405,0 9.373775,0.331805 13.862255,2.435742 6.62876,3.107172 12.97795,9.456366 16.08513,16.085126 l 2.43574,5.19635 0.4561,50.448121 0.4561,50.44813 25.49887,-22.99473 c 26.96701,-24.31869 37.90029,-33.41341 51.73743,-43.03714 39.33719,-27.359045 85.86905,-46.469612 132.56986,-54.446254 36.38306,-6.214338 77.87228,-6.20917 114.29104,0.01424 112.89241,19.291577 209.75553,98.270084 252.22733,205.656574 24.56941,62.12173 29.85527,130.63375 15.09617,195.66705 -22.23033,97.9539 -88.09399,181.24289 -178.19379,225.33791 -36.27246,17.75182 -72.30182,28.05773 -113.04903,32.3368 -11.95409,1.25536 -50.06631,1.75221 -59.813,0.77976 z"
     id="path860"
     transform="scale(0.03)" />
  <path
     style="fill:#999999;stroke-width:0.912201"
     d="m 361.68757,730.16175 c -5.26796,-0.73108 -13.27252,-1.95583 -17.78791,-2.72166 C 233.63992,708.73964 138.43476,633.41361 94.413408,530.04733 83.300755,503.95378 74.77916,474.70326 75.427247,464.87702 c 0.730651,-11.07807 8.049841,-21.8679 18.312741,-26.99633 4.79554,-2.39636 6.508422,-2.76096 12.970692,-2.76096 8.7409,0 13.78523,1.52092 19.9048,6.00151 6.01765,4.40598 9.27839,9.96834 13.05893,22.27671 5.51974,17.97075 11.52884,35.57582 12.14301,35.57582 0.32338,0 0.65163,0.84532 0.72946,1.87849 0.21233,2.81877 14.57064,31.87294 15.75132,31.87294 0.56249,0 0.7979,0.36373 0.52315,0.8083 -0.71605,1.15859 11.97035,20.68331 20.46868,31.50186 8.03989,10.23493 34.36282,36.69326 44.23335,44.46086 8.09128,6.36742 23.38488,16.96263 25.04127,17.34828 0.69328,0.16141 2.02805,1.0268 2.96615,1.92309 0.93811,0.8963 2.05814,1.41177 2.48899,1.1455 0.43084,-0.26628 0.99916,0.0783 1.26293,0.76564 0.73661,1.91959 28.77281,15.42003 42.58501,20.50622 13.13645,4.83735 39.26296,11.76306 46.51046,12.32917 2.40997,0.18824 4.79755,0.59923 5.30574,0.9133 3.74882,2.3169 73.99982,3.0504 74.75644,0.78054 0.1709,-0.5127 1.10589,-0.72425 2.07776,-0.4701 0.97187,0.25415 2.49153,0.14954 3.37702,-0.23246 0.88549,-0.38202 2.49438,-0.60929 3.57531,-0.50507 1.08093,0.10423 2.23814,-0.25192 2.57158,-0.79145 0.33344,-0.53952 1.00884,-0.73214 1.50088,-0.42804 1.20321,0.74363 26.34534,-5.17995 26.34534,-6.20706 0,-0.44503 0.36722,-0.5822 0.81605,-0.30481 0.99157,0.61283 21.32554,-6.28779 32.02317,-10.8675 78.28267,-33.51328 137.85801,-106.62979 154.98792,-190.21594 4.90759,-23.94677 6.7473,-55.23039 4.64008,-78.90275 -7.25858,-81.5422 -50.35999,-153.65252 -119.38205,-199.73079 -12.89284,-8.60711 -37.88034,-21.92003 -39.39058,-20.98665 -0.47046,0.29076 -0.85537,0.15099 -0.85537,-0.31058 0,-1.79484 -23.81262,-10.14231 -41.96123,-14.70945 -24.38,-6.13527 -30.49906,-6.79689 -63.39795,-6.85486 -29.03564,-0.0512 -46.18464,1.11744 -47.49427,3.23648 -0.25008,0.40463 -1.03083,0.51461 -1.73498,0.2444 -0.70417,-0.27021 -7.15624,0.95104 -14.33796,2.7139 -31.42931,7.7148 -59.07584,19.64369 -84.6654,36.53133 -14.69479,9.69771 -23.03324,16.4451 -47.65549,38.56231 l -20.13712,18.0884 14.96814,0.22732 c 8.23248,0.12501 28.5496,0.57816 45.14915,1.00697 l 30.181,0.77969 5.69221,3.03392 c 6.5948,3.51499 11.18094,8.39108 14.5563,15.47662 1.99666,4.19139 2.39081,6.29543 2.39487,12.78432 0.005,6.89967 -0.32079,8.42797 -2.91083,13.68301 -3.35403,6.80514 -8.82126,12.50299 -15.23612,15.8788 l -4.46882,2.3517 h -92.1645 -92.164504 l -4.164857,-2.00217 C 81.529462,293.57343 73.391754,285.244 70.415921,279.13341 l -2.443312,-5.0171 -0.02426,-90.52739 -0.02427,-90.527393 2.805811,-5.558281 c 3.846517,-7.619907 9.156972,-13.085711 15.974796,-16.442115 5.395658,-2.656274 6.256297,-2.807737 14.250924,-2.50801 6.56637,0.24618 9.47584,0.795458 12.74656,2.406415 5.66241,2.788953 13.02465,10.301944 15.72714,16.04917 l 2.19475,4.667463 0.66935,50.399091 c 0.36814,27.71949 0.92376,50.39165 1.23471,50.38256 0.31096,-0.009 6.51749,-5.38607 13.79229,-11.94886 22.04074,-19.88351 40.12448,-35.64618 49.25884,-42.93639 34.72685,-27.71579 81.88906,-50.339889 127.25199,-61.043829 5.01711,-1.183848 9.25969,-2.470061 9.42797,-2.858252 0.16828,-0.388191 0.6485,-0.494102 1.06716,-0.235358 0.41865,0.258744 5.82259,-0.334511 12.00875,-1.318345 6.18615,-0.983833 16.17343,-2.277763 22.19396,-2.875399 14.08147,-1.397817 48.73208,-1.385382 63.39794,0.02275 146.57482,14.073297 266.76786,123.977823 294.5644,269.349683 4.99919,26.14505 6.9237,63.28323 4.58681,88.51402 -0.66269,7.15494 -1.23027,14.65095 -1.26129,16.65779 -0.031,2.00684 -0.28598,3.85405 -0.56658,4.10491 -0.28059,0.25085 -1.25139,4.76624 -2.15732,10.0342 -14.93776,86.86264 -67.68047,168.08825 -140.92866,217.03499 -34.08164,22.77442 -72.28102,39.73608 -108.17122,48.03121 -6.02053,1.3915 -11.15165,2.76556 -11.40251,3.05346 -0.25086,0.28789 -1.68757,0.56086 -3.1927,0.60659 -1.50513,0.0457 -8.48347,1.022 -15.50741,2.16946 -11.21322,1.83185 -16.6648,2.12194 -44.69784,2.37843 -24.31002,0.22243 -34.21212,-0.025 -41.50513,-1.03713 z"
     id="path803"
     transform="scale(0.03)" />
</svg>
