<?xml version="1.0" encoding="UTF-8" standalone="no"?>
<!-- Uploaded to: SVG Repo, www.svgrepo.com, Generator: SVG Repo Mixer Tools -->

<svg
   fill="#000000"
   width="800px"
   height="800px"
   viewBox="0 0 96 96"
   version="1.1"
   id="svg1182"
   sodipodi:docname="refresh-icon.svg"
   inkscape:version="1.2.2 (b0a84865, 2022-12-01)"
   xmlns:inkscape="http://www.inkscape.org/namespaces/inkscape"
   xmlns:sodipodi="http://sodipodi.sourceforge.net/DTD/sodipodi-0.dtd"
   xmlns="http://www.w3.org/2000/svg"
   xmlns:svg="http://www.w3.org/2000/svg">
  <defs
     id="defs1186" />
  <sodipodi:namedview
     id="namedview1184"
     pagecolor="#ffffff"
     bordercolor="#cccccc"
     borderopacity="1"
     inkscape:showpageshadow="0"
     inkscape:pageopacity="1"
     inkscape:pagecheckerboard="0"
     inkscape:deskcolor="#d1d1d1"
     showgrid="false"
     inkscape:zoom="1.09625"
     inkscape:cx="400"
     inkscape:cy="400.9122"
     inkscape:window-width="1390"
     inkscape:window-height="1027"
     inkscape:window-x="0"
     inkscape:window-y="25"
     inkscape:window-maximized="0"
     inkscape:current-layer="svg1182" />
  <title
     id="title1174" />
  <g
     id="g1180">
    <path
       d="M94.2422,37.7578a5.9979,5.9979,0,0,0-8.4844,0l-2.61,2.61A36.0347,36.0347,0,0,0,48,12a35.55,35.55,0,0,0-21.6211,7.3594,5.9977,5.9977,0,0,0,7.2422,9.5625A23.6677,23.6677,0,0,1,48,24,23.957,23.957,0,0,1,70.6729,40.4766l-3.97-3.1641a5.9956,5.9956,0,1,0-7.4765,9.375l15.0351,12a5.99,5.99,0,0,0,7.98-.4453l12-12A5.9979,5.9979,0,0,0,94.2422,37.7578Z"
       id="path1176" />
    <path
       d="M62.3789,67.0781A23.6675,23.6675,0,0,1,48,72,23.957,23.957,0,0,1,25.3271,55.5234l3.97,3.1641a5.9956,5.9956,0,1,0,7.4765-9.375l-15.0351-12a6.0071,6.0071,0,0,0-7.98.4453l-12,12a5.9994,5.9994,0,0,0,8.4844,8.4844l2.61-2.61A36.0347,36.0347,0,0,0,48,84a35.55,35.55,0,0,0,21.6211-7.3594,5.9977,5.9977,0,1,0-7.2422-9.5625Z"
       id="path1178" />
  </g>
  <path
     style="fill:#666666;stroke-width:0.912201"
     d="m 383.12429,699.05669 c -23.32746,-1.88308 -39.02813,-4.37814 -57.01255,-9.06008 -93.4373,-24.3249 -168.47725,-90.46373 -204.31149,-180.07643 -4.36043,-10.90434 -10.21841,-29.24037 -12.38575,-38.76853 -0.91298,-4.01368 -1.78616,-7.46637 -1.9404,-7.67264 -0.15424,-0.20628 -6.33744,5.56576 -13.740435,12.82676 -18.784652,18.42431 -27.010482,22.71818 -43.562627,22.73962 -24.981134,0.0324 -45.0748261,-17.38013 -48.9701481,-42.43583 -1.72546115,-11.0986 1.1479484,-24.02208 7.4360561,-33.44448 1.471439,-2.20488 27.632929,-28.89734 58.136645,-59.31659 51.813919,-51.67043 55.872179,-55.50072 61.708989,-58.2425 15.13853,-7.11116 32.87907,-6.36391 46.55051,1.96075 5.024,3.05915 134.02205,105.98278 137.10335,109.39059 7.37116,8.15227 12.27603,21.14216 12.36898,32.75761 0.21892,27.35738 -21.70102,49.50669 -49.02081,49.53374 -14.85495,0.0147 -21.63203,-3.28146 -45.10631,-21.93833 -10.25887,-8.15353 -18.97603,-14.8246 -19.37146,-14.8246 -0.39544,0 0.15333,2.36032 1.21949,5.24515 25.80071,69.81235 84.04922,118.01439 157.59076,130.41012 14.79073,2.49303 47.80386,2.26629 62.56603,-0.42973 21.08484,-3.85073 38.91088,-9.79503 57.11611,-19.04603 8.77608,-4.45957 15.44133,-8.62169 32.5574,-20.3305 25.20439,-17.24189 58.64929,-8.38906 72.11318,19.08827 8.70999,17.77548 6.47385,36.69383 -6.23804,52.77559 -11.35314,14.36279 -53.63341,39.1803 -87.92345,51.60896 -36.88595,13.36956 -82.16571,20.0517 -116.88403,17.24911 z"
     id="path3297"
     transform="scale(0.12)" />
  <path
     style="fill:#666666;stroke-width:0.912201"
     d="m 642.58861,498.94024 c -5.94105,-0.90191 -13.03681,-3.55665 -18.17329,-6.79917 -4.75619,-3.00244 -133.94998,-106.22306 -136.55176,-109.09933 -7.36941,-8.1469 -12.27603,-21.14105 -12.36898,-32.75668 -0.21861,-27.31825 21.68707,-49.46063 49.02081,-49.5505 14.66856,-0.0483 21.62929,3.30367 44.69784,21.524 9.53249,7.5291 17.85484,14.10021 18.49411,14.60248 0.63926,0.50225 1.33992,0.73556 1.55702,0.51845 0.70792,-0.70791 -8.62196,-22.90865 -13.36072,-31.79226 -29.55556,-55.407 -81.6115,-92.53458 -145.3841,-103.69157 -13.06142,-2.28509 -48.29923,-2.2668 -61.07826,0.0318 -21.93085,3.9446 -37.80388,9.08209 -56.55645,18.30515 -10.70687,5.26595 -16.53049,8.8381 -34.94146,21.43272 -27.45492,18.7814 -64.07274,6.28466 -75.07421,-25.62096 -2.52418,-7.32042 -2.79787,-20.7325 -0.56977,-27.92125 1.95927,-6.3214 6.4926,-14.73678 10.39392,-19.29459 8.71989,-10.18723 40.41546,-30.40599 65.40556,-41.72253 95.83552,-43.398256 206.13983,-33.028143 293.02436,27.54829 45.07367,31.42564 82.47942,77.37053 103.94328,127.67187 5.12098,12.00121 13.26155,36.37076 15.54061,46.52224 0.90109,4.01368 1.76086,7.46269 1.91061,7.66447 0.14975,0.20178 6.53895,-5.75033 14.19822,-13.22691 14.71392,-14.36295 19.85334,-17.91053 30.3422,-20.9443 20.66445,-5.97693 45.02486,4.23466 55.93776,23.44844 3.36749,5.92895 6.54799,17.37314 6.54799,23.56119 0,11.565 -4.75076,24.02028 -12.74302,33.40897 -9.30161,10.9268 -105.36636,105.83512 -110.1635,108.83735 -9.79006,6.12698 -23.12048,9.00171 -34.04877,7.34268 z"
     id="path3299"
     transform="scale(0.12)" />
</svg>
