<?xml version="1.0" encoding="UTF-8" standalone="no"?>
<!-- Uploaded to: SVG Repo, www.svgrepo.com, Generator: SVG Repo Mixer Tools -->

<svg
   width="800px"
   height="800px"
   viewBox="0 0 24 24"
   fill="none"
   version="1.1"
   id="svg8"
   sodipodi:docname="save-icon.svg"
   inkscape:version="1.2.2 (b0a84865, 2022-12-01)"
   xmlns:inkscape="http://www.inkscape.org/namespaces/inkscape"
   xmlns:sodipodi="http://sodipodi.sourceforge.net/DTD/sodipodi-0.dtd"
   xmlns="http://www.w3.org/2000/svg"
   xmlns:svg="http://www.w3.org/2000/svg">
  <defs
     id="defs12" />
  <sodipodi:namedview
     id="namedview10"
     pagecolor="#ffffff"
     bordercolor="#cccccc"
     borderopacity="1"
     inkscape:showpageshadow="0"
     inkscape:pageopacity="1"
     inkscape:pagecheckerboard="0"
     inkscape:deskcolor="#d1d1d1"
     showgrid="false"
     inkscape:zoom="0.295"
     inkscape:cx="400"
     inkscape:cy="400"
     inkscape:window-width="1440"
     inkscape:window-height="900"
     inkscape:window-x="0"
     inkscape:window-y="0"
     inkscape:window-maximized="0"
     inkscape:current-layer="svg8" />
  <path
     style="fill:#666666;stroke:#000000;stroke-width:0"
     d="M 5.338983,20.871105 C 4.983987,20.754378 4.6567368,20.531238 4.2548031,20.131844 3.3210936,19.204033 3.3559323,19.515266 3.3559323,12.101695 c 0,-7.42165 -0.036523,-7.0983922 0.9088194,-8.0437348 0.9287649,-0.9287649 0.8571702,-0.9187605 6.3256993,-0.8839416 4.568896,0.029091 4.617793,0.031606 5.121413,0.2634213 0.728879,0.335502 4.921973,4.5285956 5.257476,5.2574756 0.231815,0.50362 0.23433,0.552517 0.263421,5.1214125 0.03482,5.468529 0.04482,5.396935 -0.883941,6.325699 -0.946839,0.946839 -0.615433,0.909856 -8.087617,0.902546 -5.665772,-0.0055 -6.4730438,-0.02577 -6.92222,-0.173468 z m 0.9862296,-4.06602 c 0.051112,-2.682386 0.140274,-3.027943 0.9851997,-3.818272 0.8701938,-0.813964 0.9917655,-0.834271 4.9946717,-0.834271 4.002908,0 4.124479,0.02031 4.994673,0.834271 0.844926,0.790329 0.934087,1.135886 0.9852,3.818272 0.0422,2.214676 0.0526,2.313559 0.243318,2.313559 0.109579,0 0.333002,-0.133767 0.496496,-0.297262 L 19.322034,18.52412 V 13.970417 9.4167155 L 17.156049,7.2507305 C 15.116159,5.2108401 14.968152,5.0847456 14.613676,5.0847456 h -0.376388 l -0.0022,1.1949149 c -0.0025,1.355706 -0.145402,1.823187 -0.699744,2.289634 -0.524165,0.441026 -0.910264,0.50146 -2.968101,0.464583 C 8.6931585,9.0002925 8.6733759,8.9975785 8.2716285,8.7189415 7.566885,8.2301585 7.3877106,7.7711395 7.3393227,6.3305085 L 7.2974799,5.0847456 H 6.5900697 c -0.6462816,0 -0.7330977,0.025687 -1.0046727,0.2972622 L 5.2881348,5.67927 v 6.422425 6.422425 l 0.2972622,0.297262 c 0.163494,0.163495 0.3869175,0.297262 0.4964964,0.297262 0.1907187,0 0.2011182,-0.09888 0.2433192,-2.313559 z m 10.0277494,0.07837 -0.03093,-2.235188 -0.281973,-0.281761 -0.281971,-0.281761 H 12.305084 8.8520802 l -0.2819724,0.281761 -0.2819724,0.281761 -0.030928,2.235188 -0.030928,2.235188 H 12.305084 16.38389 Z M 12.305084,6.1016945 V 5.0847456 H 10.779661 9.2542371 v 1.0169489 1.01695 h 1.5254239 1.525423 z"
     id="path133" />
</svg>
