<?xml version="1.0" encoding="UTF-8" standalone="no"?>
<svg
   fill="none"
   height="24"
   viewBox="0 0 24 24"
   width="24"
   version="1.1"
   id="svg4"
   sodipodi:docname="book_icon.svg"
   inkscape:version="1.2.2 (b0a84865, 2022-12-01)"
   xmlns:inkscape="http://www.inkscape.org/namespaces/inkscape"
   xmlns:sodipodi="http://sodipodi.sourceforge.net/DTD/sodipodi-0.dtd"
   xmlns="http://www.w3.org/2000/svg"
   xmlns:svg="http://www.w3.org/2000/svg">
  <defs
     id="defs8" />
  <sodipodi:namedview
     id="namedview6"
     pagecolor="#ffffff"
     bordercolor="#cccccc"
     borderopacity="1"
     inkscape:showpageshadow="0"
     inkscape:pageopacity="1"
     inkscape:pagecheckerboard="0"
     inkscape:deskcolor="#d1d1d1"
     showgrid="false"
     inkscape:zoom="9.8333333"
     inkscape:cx="12.61017"
     inkscape:cy="12.254237"
     inkscape:window-width="1309"
     inkscape:window-height="737"
     inkscape:window-x="0"
     inkscape:window-y="25"
     inkscape:window-maximized="0"
     inkscape:current-layer="svg4" />
  <path
     d="M12 6.60324C13.6667 5.33178 17.5 3.74246 21 6.60324V19C17.5 16.1392 13.6667 17.7285 12 19M12 6.60324C10.3333 5.33178 6.5 3.74246 3 6.60324V19C6.5 16.1392 10.3333 17.7285 12 19M12 6.60324V19"
     stroke="black"
     stroke-linecap="round"
     stroke-linejoin="round"
     stroke-width="2"
     id="path2" />
  <path
     style="fill:#4d4d4d;stroke-width:0.101695"
     d="M 2.6835374,19.885572 C 2.5654151,19.836642 2.3709236,19.672216 2.251334,19.520182 2.0344575,19.244468 2.0338983,19.227327 2.0338983,12.855477 c 0,-4.5616274 0.033117,-6.4609639 0.1158191,-6.642475 C 2.393032,5.6789845 4.1510838,4.6643044 5.4102527,4.331146 6.4874084,4.0461457 7.1727198,3.9926744 8.1661247,4.1161195 9.2689289,4.2531591 10.200456,4.5349174 11.211864,5.0373621 L 12,5.42889 12.788136,5.0373621 c 1.011407,-0.5024447 1.942935,-0.784203 3.045739,-0.9212426 0.993406,-0.1234451 1.678717,-0.069974 2.755872,0.2150265 1.259169,0.3331584 3.017221,1.3478385 3.260535,1.881856 0.08271,0.1815275 0.11582,2.0838998 0.11582,6.654585 v 6.400391 l -0.2922,0.327027 c -0.406763,0.455247 -0.836596,0.444706 -1.496977,-0.03671 -2.191231,-1.597405 -4.757033,-1.603065 -7.309888,-0.01613 -0.390079,0.242485 -0.781543,0.440883 -0.869921,0.440883 -0.08838,0 -0.387018,-0.144305 -0.663647,-0.320678 C 8.6854513,17.974053 6.0607751,17.927737 3.8609228,19.530511 3.3381709,19.911378 2.9953831,20.014752 2.6835374,19.885572 Z M 11.084746,12.196793 V 7.0546031 L 10.218721,6.6487703 C 8.2579588,5.7299261 6.3817226,5.7219224 4.6630284,6.6250705 L 3.9661017,6.9912952 v 5.1158928 5.115892 l 0.8013399,-0.292452 c 1.7525535,-0.639603 3.3910677,-0.627816 5.2806474,0.03799 0.542195,0.191045 0.99725,0.352533 1.011233,0.358861 0.01398,0.0063 0.02542,-2.302478 0.02542,-5.130683 z m 4.725349,4.311854 c 1.100245,-0.142027 2.273381,0.0026 3.422464,0.421981 l 0.801339,0.292452 V 12.107188 6.9912952 L 19.322773,6.6176095 C 17.628354,5.7272173 15.724982,5.7379203 13.781279,6.6487703 l -0.866025,0.4058328 v 5.1285649 5.128566 l 1.006589,-0.344638 c 0.553624,-0.18955 1.403337,-0.395853 1.888252,-0.458449 z"
     id="path473" />
  <path
     style="fill:#666666;stroke-width:0.101695"
     d="M 2.4490258,19.600264 2.1679342,19.319173 2.109523,16.557117 C 2.0773968,15.037986 2.0772223,12.096862 2.1091351,10.021285 L 2.1671583,6.2475103 2.4818842,5.9374082 C 2.8557099,5.5690747 3.6789612,5.0763557 4.5317687,4.7105447 6.5580661,3.8413663 8.7404181,3.9557099 11.106468,5.055024 L 12,5.4701766 12.893531,5.055024 c 2.366051,-1.0993141 4.548403,-1.2136577 6.574701,-0.3444793 0.852204,0.3655525 1.675992,0.858463 2.049036,1.2260348 l 0.313879,0.3092735 0.06748,4.444607 c 0.03711,2.444534 0.06748,5.370494 0.06748,6.502132 v 2.057525 l -0.359471,0.31562 c -0.197709,0.17359 -0.465191,0.315619 -0.594403,0.315619 -0.129213,0 -0.528044,-0.190119 -0.886292,-0.422485 -1.273166,-0.825804 -2.144789,-1.099949 -3.502875,-1.101732 -1.23186,-0.0016 -1.898574,0.18217 -3.375047,0.930368 L 12.004502,19.917653 10.756488,19.29251 C 9.2747273,18.55028 8.5687108,18.355932 7.3541445,18.355932 c -1.3811501,0 -2.2626382,0.284516 -3.5891136,1.158449 -0.6685311,0.440454 -0.9434905,0.458398 -1.3160051,0.08588 z m 8.6357202,-7.43357 V 6.9944058 L 10.294359,6.6331104 C 9.177309,6.1224933 8.3913065,5.941712 7.3477246,5.9553818 6.2046781,5.9703545 5.7228805,6.0768769 4.7542373,6.5287853 l -0.7881356,0.367695 v 5.1704037 c 0,2.843722 0.020278,5.170404 0.045061,5.170404 0.024784,0 0.4671421,-0.14141 0.9830185,-0.314244 1.6500876,-0.55283 3.2453043,-0.517715 5.0227678,0.110567 0.447458,0.158163 0.870763,0.291574 0.940678,0.296471 0.100146,0.007 0.127119,-1.088606 0.127119,-5.163388 z m 2.033898,5.092386 c 0,-0.04395 0.08009,-0.08311 0.177966,-0.08704 0.09788,-0.0039 0.589831,-0.136311 1.093221,-0.294193 0.810507,-0.254205 1.072373,-0.287507 2.288135,-0.29099 1.287425,-0.0037 1.431795,0.01643 2.319346,0.323248 0.520555,0.179949 0.966741,0.327181 0.991525,0.327181 0.02478,0 0.04506,-2.326682 0.04506,-5.170404 V 6.8964803 L 19.245763,6.5353699 C 18.259591,6.0835226 17.762361,5.9701002 16.704417,5.9556663 15.669418,5.9415455 14.784436,6.1399802 13.727303,6.6232083 l -0.812049,0.3711975 v 5.1722882 c 0,3.380396 0.03523,5.172289 0.101695,5.172289 0.05593,0 0.101695,-0.03596 0.101695,-0.0799 z"
     id="path926" />
</svg>
