<?xml version="1.0" encoding="UTF-8" standalone="no"?>
<!-- Uploaded to: SVG Repo, www.svgrepo.com, Generator: SVG Repo Mixer Tools -->

<svg
   fill="#000000"
   width="800px"
   height="800px"
   viewBox="0 0 96 96"
   version="1.1"
   id="svg1182"
   sodipodi:docname="refresh-icon.svg"
   inkscape:version="1.2.2 (b0a84865, 2022-12-01)"
   xmlns:inkscape="http://www.inkscape.org/namespaces/inkscape"
   xmlns:sodipodi="http://sodipodi.sourceforge.net/DTD/sodipodi-0.dtd"
   xmlns="http://www.w3.org/2000/svg"
   xmlns:svg="http://www.w3.org/2000/svg">
  <defs
     id="defs1186" />
  <sodipodi:namedview
     id="namedview1184"
     pagecolor="#ffffff"
     bordercolor="#cccccc"
     borderopacity="1"
     inkscape:showpageshadow="0"
     inkscape:pageopacity="1"
     inkscape:pagecheckerboard="0"
     inkscape:deskcolor="#d1d1d1"
     showgrid="false"
     inkscape:zoom="1.1009789"
     inkscape:cx="371.48758"
     inkscape:cy="430.07181"
     inkscape:window-width="1390"
     inkscape:window-height="1027"
     inkscape:window-x="0"
     inkscape:window-y="25"
     inkscape:window-maximized="0"
     inkscape:current-layer="svg1182" />
  <title
     id="title1174" />
  <g
     id="g1180"
     transform="translate(2.7781562e-8,-0.54496957)"
     style="fill:#666666">
    <path
       d="m 94.2422,37.7578 a 5.9979,5.9979 0 0 0 -8.4844,0 l -2.61,2.61 A 36.0347,36.0347 0 0 0 48,12 35.55,35.55 0 0 0 26.3789,19.3594 5.997726,5.997726 0 0 0 33.6211,28.9219 23.6677,23.6677 0 0 1 48,24 23.957,23.957 0 0 1 70.6729,40.4766 l -3.97,-3.1641 a 5.9956,5.9956 0 1 0 -7.4765,9.375 l 15.0351,12 a 5.99,5.99 0 0 0 7.98,-0.4453 l 12,-12 a 5.9979,5.9979 0 0 0 7e-4,-8.4844 z"
       id="path1176"
       style="fill:#666666" />
    <path
       d="M 62.3789,67.0781 A 23.6675,23.6675 0 0 1 48,72 23.957,23.957 0 0 1 25.3271,55.5234 l 3.97,3.1641 a 5.9956,5.9956 0 1 0 7.4765,-9.375 l -15.0351,-12 a 6.0071,6.0071 0 0 0 -7.98,0.4453 l -12,12 a 5.9994,5.9994 0 0 0 8.4844,8.4844 l 2.61,-2.61 A 36.0347,36.0347 0 0 0 48,84 35.55,35.55 0 0 0 69.6211,76.6406 5.997726,5.997726 0 1 0 62.3789,67.0781 Z"
       id="path1178"
       style="fill:#666666" />
  </g>
</svg>
